<svg id="visual" viewBox="0 0 900 600" width="900" height="600" xmlns="http://www.w3.org/2000/svg" xmlns:xlink="http://www.w3.org/1999/xlink" version="1.1"><rect x="0" y="0" width="900" height="600" fill="#fff"></rect><path d="M0 476L21.5 479.3C43 482.7 86 489.3 128.8 485.7C171.7 482 214.3 468 257.2 455.5C300 443 343 432 385.8 431.7C428.7 431.3 471.3 441.7 514.2 436.7C557 431.7 600 411.3 642.8 407.3C685.7 403.3 728.3 415.7 771.2 424.5C814 433.3 857 438.7 878.5 441.3L900 444L900 601L878.5 601C857 601 814 601 771.2 601C728.3 601 685.7 601 642.8 601C600 601 557 601 514.2 601C471.3 601 428.7 601 385.8 601C343 601 300 601 257.2 601C214.3 601 171.7 601 128.8 601C86 601 43 601 21.5 601L0 601Z" fill="#e9ecef" stroke-linecap="round" stroke-linejoin="miter"></path></svg>